# xmcd
#
# Track frame offsets:
#	150
#	11598
#	24546
#	37119
#	50817
#	63840
#	77913
#	90261
#	103059
#	117582
#	132630
#	145878
#	158226
#	170199
#
# Disc length: 2483 seconds
#
# Revision: 1
# Processed by: cddbd v1.5.2PL0 Copyright (c) Steve Scherf et al.
# Submitted via: audiograbber 1.83.01
#
DISCID=c709b10e
DTITLE=The Del McCoury Band - The Promised Land
DYEAR=1900
DGENRE=
TTITLE0=I'm Bound for the Land of Canaan
TTITLE1=I'm Poor as A Beggar
TTITLE2=It's Surprising What the Lord Can Do
TTITLE3=Jesus Carried Me A Cross
TTITLE4=Five Flat Rocks
TTITLE5=I'll Put it on A Crown and Walk Around
TTITLE6=Don't Put Off Until Tomorrow
TTITLE7=Led By the Master's Hand
TTITLE8=It's An Unfriendly World
TTITLE9=Gold Under My Feet
TTITLE10=Ain't Nothin' Going To Come Up Today (Me And The Good Lord Can't Handl
TTITLE10=e)
TTITLE11=We Know Where He Is
TTITLE12=Sit Down With Jesus
TTITLE13=The Lord is Writing Down Names
EXTD=
EXTT0=
EXTT1=
EXTT2=
EXTT3=
EXTT4=
EXTT5=
EXTT6=
EXTT7=
EXTT8=
EXTT9=
EXTT10=
EXTT11=
EXTT12=
EXTT13=
PLAYORDER=
